PathFileType	4	(X/Y/Z)	D:\Long Term Storage\D'Arcy Smith\Coord12.trc
DataRate	CameraRate	NumFrames	NumMarkers	Units	OrigDataRate	OrigDataStartFrame	OrigNumFrames
120.00	120.00	      126	4	mm	120.00	1	      4812
Frame#	Time	M1			M2			M3			M4			
		X1	Y1	Z1	X2	Y2	Z2	X3	Y3	Z3	X4	Y4	Z4	

1	0.000	1020.20032	295.57959	613.73962	1603.79431	360.80801	714.76501							
2	0.008	1020.95734	297.91925	617.64966	1602.07874	363.37555	717.33997							
3	0.017	1021.54926	299.91739	621.47180	1601.69385	365.85760	719.66431							
4	0.025	1022.20544	301.73822	624.40546	1600.71362	367.62390	721.50720							
5	0.033	1022.88446	303.31134	627.08411	1599.98169	369.07892	722.82837							
6	0.042	1023.03857	304.70004	629.05554	1599.33105	370.11151	723.63757							
7	0.050	1023.35461	305.82822	630.73834	1598.76843	370.75214	723.96332							
8	0.058	1023.51923	306.73215	631.97217	1598.26379	370.86969	723.84216							
9	0.067	1023.74933	307.46521	632.73236	1597.89282	370.54883	723.21307							
10	0.075	1022.81482	307.48529	633.31824	1597.56885	369.75064	722.11481							
11	0.083	1022.80914	307.63586	633.00079	1597.31567	368.45114	720.56567							
12	0.092	1022.68518	307.44568	632.25244	1597.25403	366.92819	718.62109							
13	0.100	1022.56628	306.91959	630.98846	1597.22852	365.16605	716.18817							
14	0.108	1022.23645	306.15671	629.39941	1597.61389	362.47382	713.26038							
15	0.117	1022.46722	305.38474	627.39380	1597.44543	359.32730	709.68427							
16	0.125	1022.82251	304.15570	624.58862	1598.25781	356.15817	706.02380							
17	0.133	1022.35309	302.55673	621.61731	1598.76184	352.51004	701.75250							
18	0.142	1021.98236	300.78012	617.97504	1598.63550	348.85263	697.47949							
19	0.150	1021.58289	298.89230	614.25006	1599.19873	344.61505	692.26257							
20	0.158	1021.00739	296.58075	609.89209	1599.48120	339.86295	686.46936							
21	0.167	1020.60901	294.38614	605.19604	1600.33423	335.10773	680.20465							
22	0.175	1019.75092	291.84476	600.06299	1601.00916	330.33536	673.61890							
23	0.183	1019.27173	289.39185	594.51385	1601.69165	326.58218	666.27026							
24	0.192	1018.34357	286.92535	588.52991	1602.70007	321.10544	658.68512							
25	0.200	1017.55280	284.01248	581.94940	1603.59644	316.07324	650.54730							
26	0.208	1016.83600	281.75333	574.57776	1605.36792	309.55264	641.35114							
27	0.217	1016.13745	279.21402	567.32831	1606.17578	304.63733	632.11053							
28	0.225	1015.35345	276.59622	559.66956	1607.01282	300.27347	622.59332							
29	0.233	1014.70001	274.13831	551.62000	1607.89099	295.30463	612.04285							
30	0.242	1013.88855	271.77728	543.28192	1608.81250	290.98129	601.70856							
31	0.250	1013.30841	269.60507	534.42065	1609.75415	286.99045	590.50598							
32	0.258	1012.58215	267.67294	525.38324	1610.23279	282.93137	578.99750							
33	0.267	1011.76868	266.05289	515.87714	1611.17297	279.34760	566.86200							
34	0.275	1010.82355	264.01956	507.06052	1611.92212	276.19083	554.28528							
35	0.283	1010.03888	262.88245	497.09241	1612.69897	273.41583	541.31433							
36	0.292	1009.50995	262.48135	486.87149	1613.60059	271.09879	528.04150							
37	0.300	1008.63135	262.10724	476.46722	1614.42029	269.20959	514.42236							
38	0.308	1007.90375	262.01053	465.70444	1615.14832	267.69714	500.43167							
39	0.317	1007.36780	262.04636	454.84375	1616.04834	266.81024	486.32880							
40	0.325	1006.67505	262.73816	443.79944	1616.53943	265.98520	471.99362							
41	0.333	1005.81592	263.47687	432.63754	1617.43628	266.29044	457.37271							
42	0.342	1005.30426	264.79071	421.45218	1618.51306	266.78925	442.27835							
43	0.350	1004.78058	266.32593	410.01752	1616.31519	268.92975	427.25781							
44	0.358	1004.26160	268.77896	398.62546	1617.39270	269.66840	412.87347							
45	0.367	1003.54749	270.91293	387.46530	1619.22131	271.42017	397.82651							
46	0.375	1003.11621	273.45950	376.29678	1619.11377	273.86572	383.83246							
47	0.383	1002.80945	276.37460	365.21280	1619.38367	276.71188	369.70786							
48	0.392	1002.30499	279.57324	354.39951	1620.51733	280.60358	354.96497							
49	0.400	1002.02802	282.99902	343.61618	1620.88550	284.66672	341.08337							
50	0.408	1001.85187	286.70755	332.81070	1621.21045	289.13150	327.49661							
51	0.417	1001.52753	291.03232	321.11011	1621.38379	293.57047	314.66983							
52	0.425	1001.35925	295.10260	310.85361	1622.17407	298.74341	302.30051							
53	0.433	1001.17834	299.35794	300.85693	1623.50378	304.01062	290.36530							
54	0.442	1001.10712	303.78812	291.15051	1623.82263	309.37103	278.49854							
55	0.450	1000.93463	308.35425	281.68948	1624.36658	315.34195	266.93039							
56	0.458	1000.94342	312.70096	272.56171	1624.47229	321.23022	256.13507							
57	0.467	1000.79559	317.32886	263.83182	1624.48389	327.24100	245.81274							
58	0.475	1000.70593	321.87964	255.41400	1624.70898	333.22690	236.23820							
59	0.483	1000.58423	326.27527	247.46376	1624.79211	339.31525	227.26080							
60	0.492	1000.58167	330.74435	239.96669	1624.79150	345.12366	218.91089							
61	0.500	1000.44110	335.06931	232.89632	1624.69946	350.76981	211.08194							
62	0.508	1000.55481	339.21161	226.18707	1624.81592	356.46832	204.19713							
63	0.517	1000.29114	343.48685	220.08757	1624.93860	361.83835	197.86073							
64	0.525	1000.10748	347.35403	214.49271	1625.03308	366.92413	192.32896							
65	0.533	1000.15393	351.11136	209.32130	1625.17468	371.57419	187.36769							
66	0.542	999.86896	354.66101	204.59039	1625.33887	375.71762	183.10451							
67	0.550	999.67523	357.79022	200.61043	1625.56274	379.46265	179.45541							
68	0.558	999.47583	360.69559	196.97087	1625.66992	382.77612	176.43346							
69	0.567	999.04163	363.08566	194.04744	1626.19531	385.67404	174.01546							
70	0.575	998.74219	365.35037	191.53465	1626.27747	387.91910	172.27467							
71	0.583	998.32373	367.23563	189.56436	1626.79639	389.61954	171.06107							
72	0.592	997.85590	368.61450	188.06020	1627.32056	390.70804	170.46008							
73	0.600	997.32751	369.67252	186.93639	1627.79150	391.24365	170.32674							
74	0.608	996.83112	370.26852	186.41739	1628.37036	391.22409	170.83742							
75	0.617	996.32477	370.50360	186.37798	1629.12134	390.72507	171.80591							
76	0.625	995.74689	370.32739	186.75595	1629.99023	389.65109	173.27200							
77	0.633	995.05908	369.69858	187.71985	1630.76257	387.99295	175.26726							
78	0.642	994.34497	368.74268	189.14017	1631.37341	385.67862	177.66553							
79	0.650	993.75439	367.52353	190.88669	1632.41614	383.09451	180.56764							
80	0.658	993.01788	365.75430	193.13332	1633.20215	379.96274	184.04045							
81	0.667	992.32538	363.79309	195.82097	1633.89465	376.22009	187.88728							
82	0.675	991.82465	361.49014	198.73265	1633.58057	372.42224	192.01324							
83	0.683	991.15588	358.84579	202.27319	1634.84900	367.92728	196.91309							
84	0.692	990.51459	355.86365	206.05820	1635.30713	363.09644	202.05444							
85	0.700	989.97388	352.86166	210.14557	1636.04651	358.08426	207.70354							
86	0.708	989.51038	349.40771	214.83650	1636.68591	352.77853	214.07402							
87	0.717	989.13849	345.77191	219.57370	1638.26282	346.84988	220.81221							
88	0.725	988.81824	341.98575	224.80840	1638.95618	340.93961	228.11073							
89	0.733	988.47388	337.85791	230.32489	1639.59180	334.98657	235.95528							
90	0.742	988.28198	333.70547	236.19795	1640.32141	328.89285	244.23062							
91	0.750	987.96393	329.27597	242.36098	1640.84351	322.61819	253.02670							
92	0.758	987.89496	324.78360	249.02527	1641.17712	316.46719	262.36441							
93	0.767	987.91351	320.23410	255.76619	1641.48279	310.31067	272.31464							
94	0.775	987.90814	315.52982	262.92914	1641.62573	304.18359	282.61761							
95	0.783	988.13379	311.02771	270.49457	1641.37256	298.54709	293.13293							
96	0.792	988.25745	306.37100	278.35776	1641.28967	292.57587	304.48328							
97	0.800	988.42743	301.85916	286.47116	1641.18347	286.83640	316.21155							
98	0.808	988.75482	297.37109	295.06775	1641.44788	281.82095	327.98996							
99	0.817	989.33417	292.97171	303.70563	1641.23706	276.66306	340.47964							
100	0.825	990.06232	289.08017	312.59131	1640.91223	271.97348	353.43057							
101	0.833	990.69733	285.04022	322.00409	1640.44482	267.63358	366.65488							
102	0.842	991.79413	280.71265	332.88193	1639.83582	263.95850	380.25766							
103	0.850	992.49719	276.71121	343.15735	1639.20520	260.89786	394.11438							
104	0.858	993.74963	273.68808	353.27731	1638.30103	258.30457	408.21414							
105	0.867	994.50500	270.75201	363.62527	1637.41089	256.30173	422.42697							
106	0.875	995.23279	268.18567	374.19443	1636.55701	254.83014	436.78671							
107	0.883	996.21332	265.73822	384.66248	1635.67310	253.81668	451.19809							
108	0.892	997.08063	263.62347	395.27802	1634.78381	253.35576	465.62076							
109	0.900	997.63080	261.68802	406.14499	1633.43896	253.02858	480.77890							
110	0.908	999.38367	260.19107	416.77887	1632.73877	253.86873	494.74664							
111	0.917	1000.40118	259.14267	427.43921	1631.55017	255.07652	509.01584							
112	0.925	1001.70349	258.22937	438.06512	1630.19006	256.83493	523.07141							
113	0.933	1002.67645	257.74863	448.69855	1628.33435	259.36450	537.15039							
114	0.942	1004.09235	257.60825	459.17929	1626.92310	262.21442	550.46936							
115	0.950	1005.27747	257.72141	469.37042	1625.13599	265.65048	563.98187							
116	0.958	1006.48004	258.09857	479.66577	1623.67957	269.30173	576.22046							
117	0.967	1007.05457	259.07571	489.39194	1622.16846	273.46460	588.46350							
118	0.975	1008.10712	259.91577	499.16162	1620.66614	277.84769	600.11908							
119	0.983	1010.28308	260.68945	508.75061	1619.46057	282.40402	611.17120							
120	0.992	1010.85883	262.13531	517.55963	1618.07520	287.23071	621.79987							
121	1.000	1012.05884	263.31509	526.56085	1617.08521	292.63522	631.99146							
122	1.008	1014.08075	264.63239	535.23969	1615.39636	297.35138	641.45685							
123	1.017	1014.54980	266.40042	543.28778	1614.33862	302.87024	650.88245							
124	1.025	1015.69275	268.17960	551.05255	1612.65479	307.95450	659.34070							
125	1.033	1016.85999	269.96179	558.69086	1611.81970	313.59439	667.93793							
126	1.042	1017.86145	271.90155	565.65143	1610.57495	318.26804	675.18610							
